<svg viewBox="0 0 53.3333 53.3333" fill="none" xmlns="http://www.w3.org/2000/svg" xmlns:xlink="http://www.w3.org/1999/xlink" x="0" y="0"><path id="Icon" d="M22.9337,38.9337l18.8,-18.8l-3.734,-3.734l-15.066,15.067l-7.6,-7.6l-3.734,3.733zM26.6667,53.3337c-3.689,0 -7.156,-0.7 -10.4,-2.1c-3.244,-1.4 -6.067,-3.3 -8.467,-5.7c-2.4,-2.4 -4.3,-5.223 -5.7,-8.467c-1.4,-3.244 -2.1,-6.711 -2.1,-10.4c0,-3.689 0.7,-7.156 2.1,-10.4c1.4,-3.244 3.3,-6.067 5.7,-8.467c2.4,-2.4 5.223,-4.3 8.467,-5.7c3.244,-1.4 6.711,-2.1 10.4,-2.1c3.689,0 7.156,0.7 10.4,2.1c3.244,1.4 6.067,3.3 8.467,5.7c2.4,2.4 4.3,5.223 5.7,8.467c1.4,3.244 2.1,6.711 2.1,10.4c0,3.689 -0.7,7.156 -2.1,10.4c-1.4,3.244 -3.3,6.067 -5.7,8.467c-2.4,2.4 -5.223,4.3 -8.467,5.7c-3.244,1.4 -6.711,2.1 -10.4,2.1z" fill="currentColor"/></svg>