<?xml version="1.0" encoding="UTF-8"?>
<svg version="1.1" xmlns="http://www.w3.org/2000/svg" width="16" height="16">
<path d="M0 0 C0.86625 -0.00773438 1.7325 -0.01546875 2.625 -0.0234375 C5 0.375 5 0.375 6.7890625 1.55078125 C8.46513818 4.07570815 8.3990377 5.92878086 8.375 8.9375 C8.38273437 9.90816406 8.39046875 10.87882813 8.3984375 11.87890625 C8.26695313 12.70261719 8.13546875 13.52632812 8 14.375 C4.76085771 16.53442819 3.75140267 16.64732978 0 16.625 C-0.86625 16.63015625 -1.7325 16.6353125 -2.625 16.640625 C-5 16.375 -5 16.375 -8 14.375 C-8.3984375 11.87890625 -8.3984375 11.87890625 -8.375 8.9375 C-8.38273438 7.96941406 -8.39046875 7.00132812 -8.3984375 6.00390625 C-8 3.375 -8 3.375 -6.7890625 1.55078125 C-4.42216724 -0.00475472 -2.81708207 -0.02515252 0 0 Z " fill="#C0864E" transform="translate(8,-0.375)"/>
<path d="M0 0 C1.31291016 -0.02513672 1.31291016 -0.02513672 2.65234375 -0.05078125 C5.0625 0.3125 5.0625 0.3125 6.87890625 1.58203125 C8.0625 3.3125 8.0625 3.3125 8.0625 7.3125 C6.14666353 7.5083009 4.22977461 7.69382214 2.3125 7.875 C0.71148438 8.03162109 0.71148438 8.03162109 -0.921875 8.19140625 C-3.57891204 8.29810074 -5.43710572 8.13180395 -7.9375 7.3125 C-7.04123999 1.63618659 -5.83606564 0.02570954 0 0 Z " fill="#DCA184" transform="translate(7.9375,-0.3125)"/>
<path d="M0 0 C0.99 0.495 0.99 0.495 2 1 C3.81041793 1.09632897 5.62452753 1.12981533 7.4375 1.125 C8.40558594 1.12757812 9.37367187 1.13015625 10.37109375 1.1328125 C13.11017829 1.11213973 13.11017829 1.11213973 16 0 C15.625 1.9375 15.625 1.9375 15 4 C12.53630468 5.23184766 10.8105499 5.16732342 8.0625 5.1875 C7.18722656 5.20167969 6.31195312 5.21585938 5.41015625 5.23046875 C3 5 3 5 0 3 C0 2.01 0 1.02 0 0 Z " fill="#D2977C" transform="translate(0,11)"/>
<path d="M0 0 C0.97839844 0.12568359 0.97839844 0.12568359 1.9765625 0.25390625 C6.88249144 0.82554104 11.13127185 1.15311982 16 0 C14.1969369 2.3103656 13.32060756 2.95140866 10.37109375 3.3984375 C8.91896484 3.38683594 8.91896484 3.38683594 7.4375 3.375 C6.46683594 3.38273438 5.49617187 3.39046875 4.49609375 3.3984375 C3.67238281 3.26695313 2.84867187 3.13546875 2 3 C1.34 2.01 0.68 1.02 0 0 Z " fill="#77341E" transform="translate(0,10)"/>
</svg>
